<?xml version="1.0" encoding="UTF-8"?><svg xmlns="http://www.w3.org/2000/svg" viewBox="0 0 1141.23 669.84"><defs><style>.e{fill:#0064ff;}.f{stroke-width:8px;}.f,.g{fill:none;stroke:#0064ff;stroke-miterlimit:10;}.g{stroke-width:16px;}</style></defs><g id="a"><g><line class="f" x1="570.62" y1="503.93" x2="570.62" y2="409.41"/><line class="f" x1="545.25" y1="543.23" x2="545.25" y2="517.22"/><line class="f" x1="570.62" y1="543.23" x2="570.62" y2="517.22"/><line class="f" x1="595.99" y1="543.23" x2="595.99" y2="517.22"/><line class="f" x1="557.91" y1="322.57" x2="532.37" y2="322.57"/><line class="f" x1="549.37" y1="383.67" x2="523.83" y2="383.67"/><line class="f" x1="553.64" y1="353.12" x2="528.1" y2="353.12"/><path class="f" d="M545.25,503.93v-86.48s-3.7-5.47-11.45-10.88l12.81-122.8,24.01,9.66,24.01-9.66,12.81,122.8c-7.75,5.41-11.45,10.88-11.45,10.88v86.48"/><line class="f" x1="583.32" y1="322.57" x2="608.87" y2="322.57"/><line class="f" x1="591.86" y1="383.67" x2="617.41" y2="383.67"/><line class="f" x1="587.59" y1="353.12" x2="613.14" y2="353.12"/><g><line class="g" x1="523.83" y1="383.67" x2="512.93" y2="383.67"/><line class="g" x1="528.1" y1="353.12" x2="517.2" y2="353.12"/><line class="g" x1="532.37" y1="322.57" x2="521.47" y2="322.57"/><line class="g" x1="617.41" y1="383.67" x2="628.31" y2="383.67"/><line class="g" x1="613.14" y1="353.12" x2="624.04" y2="353.12"/><line class="g" x1="608.87" y1="322.57" x2="619.77" y2="322.57"/></g><line class="f" x1="570.62" y1="396.68" x2="570.62" y2="308.09"/></g></g><g id="b"><g><path class="e" d="M148.28,416.16l121.16,8.06v8.45l-5.08,30.94-46.25-7.59-3.95-.65-.65,3.95-7.06,42.98-.83,5.07,5.12-.44,45.86-3.91v7.84l-5.08,30.95-120.91-19.85v-8.62l4.75-18.66,43.69,7.17,3.95,.65,.65-3.95,7.06-42.98,.65-3.95-3.95-.65-43.96-7.22v-8.62l4.84-18.98m-3.05-4.21l-5.78,22.7v12.52l47.31,7.77-7.06,42.98-47.31-7.77-5.78,22.7v12.52l128.21,21.05,5.78-35.21v-12.52l-50.2,4.28,7.06-42.98,50.2,8.24,5.78-35.21v-12.52l-128.21-8.53h0Z"/><path class="e" d="M249.69,279.11v4c3.69,0,7.45,.33,11.16,.99,7.86,1.38,15.2,4.14,21.81,8.18,6.8,4.15,12.61,9.53,17.27,15.98,4.13,5.71,10.39,18.21,11.98,21.42,.09,3.45,.35,16.49-.57,23.79-1.03,8.23-3.94,16.3-8.64,24-4.82,7.89-10.76,14.2-17.65,18.75-6.96,4.59-14.39,7.72-22.1,9.29-4.18,.85-8.44,1.29-12.66,1.29-3.59,0-7.24-.31-10.87-.93-7.87-1.33-15.27-4.09-21.99-8.19-6.8-4.16-12.64-9.55-17.36-16.03-4.73-6.5-8.1-13.68-10.04-21.34-1.54-6.08-1.87-21.05-1.87-27.17,.99-2.76,5.15-13.99,9.31-20.8,4.82-7.89,10.76-14.19,17.65-18.75,6.96-4.59,14.41-7.7,22.16-9.24,4.1-.82,8.27-1.23,12.39-1.23v-4m5.43,101.48c1.28,0,2.57-.07,3.83-.21,4.54-.49,8.92-1.98,13-4.43,4.15-2.48,7.77-6.23,10.77-11.14,3-4.92,4.67-9.9,4.97-14.82,.29-4.86-.45-9.49-2.19-13.74-1.69-4.14-4.2-8.01-7.46-11.51-3.17-3.4-6.78-6.35-10.71-8.75-4.05-2.47-8.38-4.33-12.87-5.52-3.12-.82-6.26-1.24-9.32-1.24-1.45,0-2.91,.09-4.34,.28-4.5,.58-8.82,2.14-12.85,4.62-4.08,2.52-7.63,6.22-10.55,11.01-3,4.91-4.68,9.84-4.99,14.67-.31,4.77,.39,9.37,2.09,13.67,1.66,4.21,4.13,8.11,7.34,11.58,3.12,3.38,6.7,6.31,10.65,8.72,4.06,2.48,8.39,4.34,12.87,5.52,3.28,.87,6.57,1.31,9.78,1.31m-5.43-101.48c-4.4,0-8.8,.44-13.17,1.31-8.3,1.65-16.16,4.93-23.58,9.83-7.42,4.9-13.71,11.57-18.86,20-5.02,8.23-9.89,22.19-9.89,22.19,0,0-.08,20.65,1.99,28.85,2.07,8.2,5.63,15.77,10.68,22.71,5.05,6.95,11.22,12.64,18.51,17.09,7.18,4.39,14.99,7.3,23.41,8.72,3.86,.66,7.71,.98,11.54,.98,4.51,0,9-.46,13.46-1.37,8.25-1.68,16.08-4.97,23.51-9.88,7.43-4.9,13.71-11.57,18.86-20,5.02-8.22,8.09-16.75,9.19-25.58,1.1-8.83,.57-25.27,.57-25.27,0,0-7.72-15.87-12.72-22.78-5-6.91-11.14-12.59-18.43-17.04-7.08-4.32-14.81-7.22-23.2-8.7-3.96-.7-7.91-1.05-11.86-1.05h0Zm5.43,97.48c-2.88,0-5.8-.39-8.75-1.17-4.12-1.09-8.06-2.78-11.81-5.07-3.64-2.22-6.91-4.9-9.79-8.02-2.88-3.12-5.07-6.56-6.56-10.33-1.49-3.77-2.09-7.75-1.82-11.94,.27-4.19,1.75-8.47,4.42-12.85,2.61-4.27,5.69-7.5,9.24-9.69,3.55-2.19,7.31-3.54,11.27-4.05,1.27-.16,2.54-.25,3.82-.25,2.73,0,5.5,.37,8.3,1.11,4.12,1.09,8.06,2.78,11.81,5.07,3.65,2.23,6.94,4.92,9.87,8.07,2.94,3.15,5.17,6.58,6.68,10.3,1.52,3.71,2.15,7.71,1.9,11.99-.25,4.28-1.71,8.6-4.39,12.97-2.67,4.37-5.81,7.64-9.41,9.8-3.6,2.16-7.4,3.45-11.38,3.88-1.13,.12-2.26,.18-3.4,.18h0Z"/><path class="e" d="M346.79,176.75h0c3.75,0,7.51,.35,11.17,1.05,7.79,1.48,15.17,4.37,21.93,8.6,6.77,4.23,12.54,9.53,17.16,15.76,3.76,5.07,9.69,20.26,11.93,26.43,.09,2.38,.33,11.47-.57,18.31-1.03,7.8-3.62,15.45-7.68,22.75-4.04,7.24-9.76,13.64-17,19.01-7.42,5.51-15.29,9.13-23.39,10.77-4.38,.89-8.76,1.34-13.02,1.34-3.68,0-7.37-.34-10.96-1-7.75-1.43-15.13-4.28-21.95-8.48-6.8-4.18-12.63-9.51-17.32-15.83-4.75-6.4-8.14-13.59-10.09-21.37-1.73-6.93-1.88-23.54-1.89-27.13,.97-2.64,4.77-12.77,8.38-19.14,4.08-7.2,9.82-13.58,17.07-18.96,7.42-5.51,15.29-9.13,23.39-10.77,4.32-.87,8.64-1.31,12.84-1.31m3.77,99.39c1.71,0,3.46-.14,5.2-.41,4.78-.75,9.54-2.86,14.17-6.3,4.63-3.43,8.04-7.43,10.16-11.88,2.09-4.4,3.14-8.96,3.12-13.56-.02-4.47-.89-9-2.6-13.47-1.66-4.34-3.9-8.42-6.65-12.13-2.83-3.82-6.15-7.16-9.87-9.94-3.82-2.85-7.96-4.88-12.3-6.01-2.6-.68-5.28-1.02-7.98-1.02-1.86,0-3.76,.16-5.67,.49-4.73,.81-9.41,2.91-13.91,6.25-4.62,3.43-8.02,7.38-10.13,11.73-2.07,4.3-3.14,8.83-3.18,13.46-.04,4.53,.79,9.06,2.47,13.48,1.63,4.3,3.85,8.36,6.6,12.07,2.84,3.82,6.16,7.17,9.86,9.94,3.79,2.84,7.9,4.9,12.2,6.12,2.76,.78,5.62,1.18,8.51,1.18m-3.77-103.39c-4.49,0-9.03,.46-13.63,1.39-8.72,1.76-17.05,5.59-24.98,11.48-7.74,5.75-13.79,12.48-18.16,20.2-4.37,7.73-8.9,20.41-8.9,20.41,0,0-.07,20.47,2.01,28.8,2.08,8.33,5.67,15.93,10.76,22.78,5.02,6.76,11.16,12.38,18.44,16.86,7.27,4.48,15.05,7.48,23.32,9.01,3.85,.71,7.74,1.07,11.68,1.07,4.54,0,9.14-.47,13.81-1.42,8.72-1.76,17.05-5.59,24.98-11.48,7.74-5.74,13.77-12.5,18.11-20.28,4.33-7.77,7.05-15.83,8.16-24.17,1.1-8.34,.58-19.61,.58-19.61,0,0-7.6-21.18-12.69-28.03-4.94-6.66-11.03-12.25-18.25-16.76-7.22-4.51-14.99-7.56-23.31-9.14-3.93-.75-7.9-1.12-11.92-1.12h0Zm3.77,99.39c-2.53,0-5-.34-7.41-1.03-3.85-1.09-7.48-2.91-10.9-5.47-3.42-2.55-6.43-5.6-9.05-9.12-2.54-3.43-4.57-7.13-6.08-11.1-1.5-3.97-2.24-7.98-2.21-12.04,.03-4.05,.96-7.97,2.79-11.75,1.83-3.78,4.79-7.2,8.91-10.26,4.02-2.98,8.08-4.82,12.2-5.52,1.69-.29,3.35-.43,4.99-.43,2.37,0,4.69,.3,6.97,.89,3.86,1.01,7.5,2.79,10.92,5.34,3.42,2.56,6.43,5.6,9.05,9.12,2.55,3.43,4.59,7.16,6.13,11.17,1.54,4.02,2.32,8.04,2.34,12.05,.02,4.01-.9,7.96-2.73,11.83-1.84,3.87-4.81,7.33-8.93,10.39-4.11,3.05-8.25,4.91-12.4,5.56-1.55,.24-3.08,.37-4.59,.37h0Z"/><path class="e" d="M472.49,113.15v4h0c2.55,0,5.08,.16,7.49,.49,8.18,1.1,15.52,3.64,21.83,7.54,6.32,3.92,11.76,9.14,16.18,15.53,3.56,5.14,10.19,21.83,12.74,28.59,.1,2.49,.39,11.99-.38,19.01-.86,7.92-3.21,15.21-6.97,21.65-3.77,6.46-8.97,12.14-15.46,16.88-6.54,4.78-14.42,8.43-23.44,10.86l-44.38,11.93-32.56-121.1v-8.03l44.28-.42h.51l.49-.14c6.91-1.86,13.53-2.8,19.66-2.8v-4m-11.65,106.98l3.86-1.04,13.78-3.71c5.03-1.35,9.37-3.54,12.89-6.51,3.54-2.97,6.28-6.58,8.14-10.71,1.83-4.05,2.85-8.56,3.03-13.4,.17-4.72-.43-9.68-1.79-14.76-1.4-5.21-3.42-9.87-6.02-13.87-2.65-4.08-5.82-7.4-9.41-9.87-3.65-2.5-7.8-4.15-12.33-4.88-1.6-.26-3.26-.39-4.91-.39-2.99,0-6.1,.43-9.24,1.27l-13.78,3.71-3.86,1.04,1.04,3.86,17.58,65.39,1.04,3.86m11.65-106.98c-6.51,0-13.41,.98-20.7,2.94l-48.25,.45v12.52l33.73,125.47,48.25-12.97c9.54-2.57,17.8-6.4,24.77-11.49,6.97-5.1,12.48-11.12,16.55-18.09,4.06-6.97,6.56-14.71,7.49-23.24,.93-8.52,.37-20.25,.37-20.25,0,0-8.67-23.19-13.42-30.06-4.75-6.87-10.54-12.42-17.36-16.65-6.82-4.23-14.62-6.93-23.4-8.11-2.61-.35-5.28-.52-8.03-.52h0Zm-8.82,102.08l-17.58-65.39,13.78-3.71c2.82-.76,5.55-1.14,8.21-1.14,1.45,0,2.88,.11,4.28,.34,3.96,.64,7.53,2.05,10.71,4.23,3.17,2.18,5.95,5.1,8.32,8.75,2.37,3.66,4.21,7.9,5.51,12.73,1.27,4.71,1.82,9.24,1.66,13.58-.16,4.34-1.05,8.31-2.68,11.9-1.62,3.6-3.98,6.69-7.07,9.29-3.09,2.6-6.88,4.5-11.35,5.71l-13.78,3.71h0Z"/><path class="e" d="M603.99,104.22c1.7,0,3.45,.08,5.19,.23,4.45,.39,8.81,1.21,12.95,2.43,4.23,1.25,8.36,2.74,12.27,4.44,1.36,.59,3.18,.86,5.73,.86,3.89,0,8.99-.65,12.66-1.22v6.62l-15.01,23.52c-2.51-1.67-5.09-3.23-7.72-4.67-3.28-1.81-7.01-3.58-11.08-5.26-4.32-1.78-8.68-2.87-12.95-3.24-.92-.08-1.81-.12-2.65-.12-2.64,0-4.97,.4-6.91,1.2-3.36,1.38-5.39,4.23-5.72,8.03-.24,2.75,.52,5.26,2.2,7.26,1.33,1.59,3.17,3.01,5.61,4.35,2.15,1.18,4.79,2.37,7.83,3.54,2.84,1.09,6.11,2.41,9.73,3.93h.03l.03,.02c5.61,2.27,10.7,4.69,15.14,7.2,4.24,2.4,7.85,5.13,10.71,8.11,2.71,2.83,4.72,6.2,5.98,10.01,1.27,3.88,1.68,8.63,1.19,14.14-.62,7.07-2.42,12.91-5.35,17.37-2.95,4.47-6.65,7.97-11.01,10.39-4.51,2.5-9.59,4.18-15.09,4.99-3.58,.52-7.2,.79-10.75,.79-2.09,0-4.2-.09-6.28-.27-4.52-.4-9.21-1.16-13.92-2.28-4.75-1.13-9.51-2.56-14.13-4.26-4.63-1.7-9.13-3.65-13.38-5.8-3.55-1.79-6.88-3.74-9.93-5.82v-8.73l14.38-13.81c3.32,2.36,6.8,4.55,10.37,6.54,3.87,2.25,8.35,4.37,13.3,6.32,5.13,2.02,10.5,3.29,15.97,3.77,1.18,.1,2.28,.16,3.29,.16,3.09,0,5.47-.49,7.26-1.49,2.75-1.54,4.41-4.04,4.67-7.05,.26-3-.78-5.78-3.03-8.02-1.75-1.75-4.09-3.3-7.14-4.72-2.66-1.24-5.76-2.53-9.23-3.84-3.3-1.24-6.84-2.7-10.53-4.35-5.31-2.34-9.89-4.78-13.62-7.25-3.56-2.36-6.46-4.95-8.6-7.69-1.97-2.5-3.19-5.44-4.43-9.09-1.68-4.95-1.16-16.89-.72-22.41,4.85-5.93,12.81-15.08,15.8-17.1,4.38-2.96,9.36-5.1,14.8-6.37,3.9-.91,7.98-1.37,12.13-1.37m0-4c-4.47,0-8.82,.49-13.03,1.47-5.94,1.38-11.32,3.7-16.13,6.95-4.82,3.25-17.44,18.84-17.44,18.84,0,0-1.68,17.93,.81,25.26,1.25,3.67,2.65,7.18,5.07,10.27,2.42,3.09,5.6,5.94,9.54,8.55,3.93,2.61,8.67,5.14,14.22,7.58,3.77,1.68,7.35,3.15,10.73,4.43,3.38,1.28,6.36,2.52,8.95,3.72,2.59,1.21,4.58,2.51,6,3.92,1.41,1.41,2.03,3.02,1.87,4.85-.15,1.7-1.03,3-2.64,3.9-1.17,.65-2.94,.98-5.31,.98-.89,0-1.88-.05-2.94-.14-5.1-.45-10.05-1.61-14.85-3.5s-9.06-3.91-12.79-6.08c-4.44-2.47-8.67-5.23-12.69-8.27l-18.04,17.32v12.52c3.69,2.65,7.73,5.08,12.13,7.31,4.4,2.22,9,4.22,13.81,5.98,4.81,1.77,9.67,3.23,14.59,4.4,4.92,1.16,9.75,1.95,14.49,2.37,2.21,.19,4.41,.29,6.63,.29,3.76,0,7.54-.28,11.33-.83,6.02-.88,11.5-2.7,16.46-5.45,4.95-2.75,9.09-6.65,12.41-11.68,3.32-5.04,5.32-11.44,6-19.22,.53-6.08,.07-11.32-1.38-15.73-1.45-4.41-3.75-8.26-6.89-11.53-3.14-3.27-7.02-6.22-11.63-8.82-4.61-2.61-9.81-5.08-15.61-7.43-3.66-1.54-6.95-2.87-9.85-3.98-2.91-1.11-5.35-2.21-7.33-3.31-1.99-1.09-3.48-2.23-4.48-3.42-1-1.19-1.42-2.63-1.27-4.34,.2-2.31,1.29-3.87,3.26-4.68,1.47-.6,3.26-.9,5.39-.9,.73,0,1.49,.04,2.3,.11,3.89,.34,7.81,1.33,11.77,2.96,3.96,1.63,7.52,3.32,10.67,5.07,3.74,2.04,7.34,4.32,10.79,6.82l17.88-28.01v-12.52s-10.26,1.95-16.66,1.95c-1.77,0-3.25-.15-4.13-.53-4.07-1.76-8.32-3.3-12.73-4.6-4.42-1.3-9-2.16-13.74-2.58-1.87-.16-3.71-.24-5.54-.24h0Z"/><path class="e" d="M685.67,115.66l96.89,27.24v8.71l-9.85,24.42-30.91-12.47-3.71-1.5-1.5,3.71-35.46,87.94-26.88-10.84v-8.93l36.58-78.33,1.79-3.82-3.91-1.58-32.29-13.02v-8.54l9.26-13m-1.63-4.61l-11.63,16.33v12.52l34.79,14.03-36.96,79.13v12.52l33.1,13.35,36.96-91.65,34.62,13.96,11.63-28.85v-12.52l-102.51-28.82h0Z"/><path class="e" d="M814.09,192.96c6.1,0,12.31,.93,18.48,2.77,7.93,2.36,15.43,6.53,22.3,12.4,5.49,4.69,16.82,23.96,21.35,32.11,0,3.24,.04,12.94,.04,13.51,.06,7.27-1.12,14.47-3.53,21.42-2.61,7.54-6.49,14.35-11.52,20.25-5.17,6.06-11.4,10.95-18.51,14.53-7.13,3.6-14.72,5.8-22.56,6.54-1.88,.18-3.8,.27-5.69,.27-5.98,0-12.1-.9-18.2-2.67-7.96-2.32-15.47-6.46-22.33-12.32-7.03-6.01-12.32-12.87-15.72-20.39-3.44-7.6-5.35-15.44-5.68-23.29-.27-6.35-.12-10.17-.05-11.48,4.13-10.86,11.36-28,14.97-32.23,5.17-6.06,11.42-10.97,18.57-14.61,7.17-3.64,14.79-5.84,22.66-6.54,1.79-.16,3.62-.24,5.42-.24m-3.59,99.08c2.31,0,4.61-.26,6.83-.78,4.35-1.02,8.58-2.88,12.55-5.55,3.86-2.59,7.34-5.69,10.33-9.19,3.08-3.61,5.6-7.59,7.49-11.84,1.93-4.36,2.97-8.84,3.11-13.34,.13-4.54-.72-9.05-2.53-13.42-1.84-4.43-4.94-8.52-9.2-12.16-4.37-3.73-8.98-6.17-13.7-7.25-2.4-.55-4.81-.82-7.18-.82-2.23,0-4.46,.24-6.65,.73-4.42,.97-8.66,2.8-12.59,5.42-3.82,2.54-7.29,5.62-10.29,9.13-3.09,3.62-5.61,7.6-7.48,11.84-1.92,4.33-3.01,8.79-3.24,13.26-.24,4.56,.54,9.12,2.32,13.54,1.79,4.49,4.92,8.66,9.3,12.4,4.38,3.74,9.04,6.18,13.85,7.24,2.38,.53,4.76,.79,7.08,.79m3.59-103.08c-1.93,0-3.85,.09-5.77,.26-8.42,.75-16.46,3.07-24.12,6.96-7.66,3.89-14.26,9.08-19.8,15.58-5.47,6.4-15.88,33.97-15.88,33.97,0,0-.36,4.11,0,12.52,.36,8.41,2.37,16.67,6.04,24.77,3.67,8.11,9.26,15.37,16.77,21.79,7.33,6.26,15.26,10.63,23.81,13.12,6.49,1.89,12.93,2.83,19.32,2.83,2.03,0,4.05-.1,6.06-.29,8.38-.79,16.37-3.1,23.99-6.95s14.2-9.01,19.74-15.51c5.39-6.31,9.47-13.49,12.26-21.54,2.56-7.41,3.81-15,3.75-22.76,0-.66-.05-14.51-.05-14.51,0,0-15.23-27.69-22.75-34.11-7.33-6.26-15.25-10.66-23.75-13.19-6.57-1.96-13.11-2.93-19.62-2.93h0Zm-3.59,99.08c-2.04,0-4.11-.23-6.21-.7-4.18-.93-8.22-3.05-12.12-6.38-3.9-3.33-6.63-6.94-8.19-10.84-1.56-3.9-2.24-7.85-2.04-11.85,.2-4,1.17-7.95,2.9-11.84,1.73-3.9,4.02-7.52,6.87-10.86,2.77-3.25,5.92-6.05,9.46-8.4,3.53-2.36,7.28-3.97,11.24-4.84,1.91-.42,3.84-.63,5.79-.63,2.08,0,4.17,.24,6.29,.72,4.1,.93,8.09,3.06,11.99,6.39,3.8,3.25,6.5,6.8,8.11,10.66,1.6,3.86,2.34,7.78,2.22,11.77-.12,3.99-1.04,7.94-2.77,11.83-1.73,3.9-4.02,7.52-6.87,10.86-2.78,3.25-5.95,6.07-9.52,8.47-3.58,2.4-7.32,4.06-11.23,4.97-1.94,.45-3.91,.68-5.92,.68h0Z"/><path class="e" d="M903.52,299.55v4c5.01,0,10.09,.65,15.09,1.94,7.57,1.95,14.86,5.48,21.66,10.5,6.75,4.98,12.57,11.88,17.32,20.52,3.3,6.01,7.34,16.01,8.41,18.7,0,2.22,.03,8.79,0,11.71-.09,8.45-2,16.11-5.68,22.81l-24.59-11.89v-8.59c1.5-1.96,4.19-5.95,4.87-10.09l.13-.79-.18-.78c-.21-.89-.46-1.78-.75-2.65-.91-2.76-2.02-5.35-3.3-7.68-2.78-5.06-6.27-8.97-10.37-11.61-4.03-2.6-8.39-4.23-12.94-4.84-1.59-.21-3.22-.32-4.83-.32-2.88,0-5.83,.34-8.77,1.02-4.48,1.03-8.69,2.62-12.53,4.73-4.31,2.37-8.15,5.32-11.41,8.78-3.31,3.51-5.87,7.43-7.6,11.64-1.76,4.28-2.57,8.85-2.42,13.56,.15,4.78,1.51,9.54,4.04,14.15,1.3,2.37,2.92,4.68,4.81,6.87,1.95,2.26,4.25,4.25,6.82,5.92,.8,.52,1.74,.78,2.77,.78,2.63,0,7.05-2.39,11.48-5.31v4.7l-1.1,30.17h-.11c-3.38,0-6.85-.56-10.31-1.65-4.82-1.53-9.47-3.81-13.81-6.78-4.4-3.01-8.52-6.66-12.25-10.82-3.75-4.19-6.91-8.61-9.39-13.13-4.33-7.88-6.74-16.04-7.19-24.25-.36-6.71-.15-10.3-.06-11.41,4.11-11.23,11.36-29.06,15.04-33.49,5.18-6.23,11.25-11.29,18.05-15.02,6.49-3.56,13.65-5.88,21.29-6.88,2.6-.34,5.22-.52,7.81-.52v-4m0,0c-2.77,0-5.55,.18-8.34,.55-8.18,1.08-15.74,3.53-22.69,7.34-7.27,3.99-13.67,9.31-19.21,15.97-5.53,6.65-15.9,35.15-15.9,35.15,0,0-.48,3.66,0,12.52,.48,8.85,3.03,17.51,7.67,25.96,2.64,4.81,5.95,9.43,9.91,13.87,3.96,4.43,8.29,8.25,12.97,11.46,4.68,3.2,9.63,5.63,14.86,7.29,3.87,1.23,7.71,1.84,11.52,1.84,1.33,0,2.66-.07,3.98-.22l1.24-33.87v-12.52s-12.04,9.06-15.48,9.06c-.24,0-.44-.05-.59-.14-2.27-1.47-4.26-3.19-5.97-5.18s-3.16-4.04-4.33-6.18c-2.23-4.07-3.42-8.18-3.55-12.35-.13-4.17,.57-8.14,2.12-11.92,1.55-3.77,3.82-7.24,6.81-10.42,2.99-3.17,6.46-5.85,10.42-8.02,3.53-1.94,7.36-3.38,11.5-4.33,2.66-.61,5.28-.92,7.87-.92,1.45,0,2.88,.09,4.31,.28,3.98,.53,7.75,1.94,11.3,4.23,3.55,2.29,6.57,5.69,9.03,10.18,1.17,2.14,2.18,4.47,3.01,7.01,.25,.76,.47,1.54,.65,2.32-.75,4.54-4.93,9.33-4.93,9.33v12.52l30.13,14.57c5.31-8.07,8.02-17.38,8.14-27.95,.04-3.59,0-12.52,0-12.52,0,0-4.91-12.58-8.9-19.86-5.05-9.2-11.2-16.47-18.45-21.81-7.25-5.34-14.93-9.06-23.03-11.15-5.35-1.38-10.71-2.07-16.09-2.07h0Z"/><path class="e" d="M995.45,416.26l4.59,31.05v8.77l-45.46,6.71-15.92,2.35,15.17,5.38,52.39,18.56,5.49,37.16v5.2l-58.43-34.63-2.6-1.54-2.19,2.08-58,55.13-4.82-32.64v-9.99l40.65-25.15,5.11-3.16-4.89-3.49-11.58-8.28-1.31-.94-1.6,.24-33.16,4.9-4.59-31.06v-8.77l121.16-17.89m3.37-4.54l-128.54,18.98v12.52l5.21,35.3,37.11-5.48,11.58,8.28-42.55,26.32v12.52l5.99,40.55,63.59-60.45,64.47,38.21v-12.52l-5.88-39.83-54.65-19.37,48.88-7.22v-12.52l-5.21-35.3h0Z"/></g></g><g id="c"><g id="d"/><g><path class="e" d="M145.22,399.43l128.21,21.05-5.78,35.21-50.2-8.24-7.06,42.98,50.2,8.24-5.78,35.21-128.21-21.05,5.78-35.21,47.31,7.77,7.06-42.98-47.31-7.77,5.78-35.21Z"/><path class="e" d="M306.14,367.03c-5.15,8.43-11.44,15.1-18.86,20-7.42,4.9-15.26,8.19-23.51,9.88-8.25,1.69-16.58,1.81-25,.38-8.42-1.42-16.22-4.33-23.41-8.72-7.29-4.45-13.46-10.15-18.51-17.09-5.05-6.94-8.61-14.51-10.68-22.71-2.07-8.2-2.53-16.69-1.37-25.5,1.16-8.8,4.25-17.31,9.27-25.54,5.15-8.43,11.44-15.1,18.86-20,7.43-4.9,15.28-8.17,23.58-9.83,8.3-1.65,16.64-1.74,25.03-.26,8.39,1.48,16.12,4.38,23.2,8.7,7.29,4.45,13.43,10.13,18.43,17.05,5,6.91,8.55,14.44,10.65,22.59,2.1,8.14,2.6,16.63,1.5,25.46-1.11,8.83-4.17,17.36-9.19,25.58Zm-71.58-9.19c3.75,2.29,7.68,3.98,11.81,5.07,4.12,1.09,8.17,1.42,12.15,.99,3.98-.43,7.77-1.72,11.38-3.88,3.61-2.16,6.74-5.42,9.41-9.8,2.67-4.37,4.13-8.7,4.39-12.97,.25-4.28-.38-8.27-1.9-11.99-1.52-3.71-3.75-7.15-6.68-10.3-2.93-3.15-6.22-5.84-9.87-8.07-3.75-2.29-7.68-3.98-11.81-5.07-4.12-1.09-8.17-1.38-12.12-.86-3.96,.51-7.71,1.87-11.27,4.05-3.55,2.19-6.63,5.42-9.24,9.69-2.67,4.37-4.14,8.66-4.42,12.85-.27,4.2,.33,8.18,1.82,11.94,1.49,3.77,3.67,7.21,6.56,10.33,2.88,3.12,6.15,5.79,9.79,8.02Z"/><path class="e" d="M386.12,279.35c-7.94,5.89-16.26,9.72-24.98,11.48-8.72,1.76-17.22,1.88-25.49,.35-8.28-1.53-16.05-4.53-23.32-9.01-7.27-4.48-13.42-10.1-18.44-16.86-5.09-6.86-8.67-14.45-10.76-22.78-2.08-8.33-2.55-16.68-1.39-25.06,1.15-8.38,3.91-16.42,8.28-24.15,4.37-7.72,10.42-14.46,18.16-20.2,7.94-5.89,16.26-9.71,24.98-11.48,8.72-1.76,17.23-1.85,25.55-.27,8.31,1.58,16.08,4.63,23.31,9.14,7.23,4.52,13.31,10.1,18.25,16.76,5.09,6.86,8.66,14.43,10.7,22.71s2.52,16.59,1.41,24.93c-1.1,8.34-3.82,16.4-8.16,24.17-4.33,7.78-10.37,14.53-18.11,20.28Zm-62.92-35.34c2.62,3.53,5.63,6.57,9.05,9.12,3.42,2.56,7.05,4.38,10.9,5.47,3.85,1.09,7.85,1.32,12,.66,4.15-.65,8.28-2.5,12.4-5.56,4.11-3.05,7.09-6.52,8.93-10.39,1.84-3.87,2.75-7.81,2.73-11.83-.02-4.01-.8-8.03-2.34-12.05-1.54-4.02-3.58-7.75-6.13-11.17-2.62-3.53-5.63-6.57-9.05-9.12-3.42-2.55-7.06-4.33-10.92-5.34-3.86-1.01-7.85-1.16-11.97-.46-4.12,.7-8.18,2.54-12.2,5.52-4.11,3.05-7.08,6.48-8.91,10.26-1.83,3.79-2.75,7.71-2.79,11.75-.03,4.05,.7,8.06,2.21,12.03,1.5,3.98,3.53,7.67,6.08,11.1Z"/><path class="e" d="M437.28,242.01l-33.73-125.48,48.25-12.97c10.37-2.79,19.94-3.59,28.72-2.42,8.78,1.18,16.58,3.88,23.4,8.11,6.82,4.23,12.61,9.78,17.36,16.65,4.75,6.87,8.29,14.61,10.6,23.21,2.57,9.54,3.38,18.58,2.45,27.1-.93,8.53-3.43,16.27-7.49,23.24-4.07,6.97-9.58,13-16.55,18.09-6.97,5.1-15.22,8.93-24.77,11.49l-48.25,12.97Zm59.61-83.49c-1.3-4.83-3.13-9.07-5.51-12.73-2.37-3.65-5.15-6.57-8.32-8.75-3.18-2.18-6.74-3.59-10.71-4.23-3.96-.64-8.12-.37-12.48,.8l-13.78,3.71,17.58,65.39,13.78-3.71c4.48-1.2,8.26-3.1,11.35-5.71,3.09-2.6,5.45-5.7,7.07-9.29,1.62-3.59,2.52-7.56,2.68-11.9,.16-4.34-.39-8.86-1.66-13.58Z"/><path class="e" d="M638.91,134.24c-3.46-2.51-7.05-4.78-10.79-6.82-3.15-1.75-6.71-3.43-10.67-5.07-3.96-1.63-7.89-2.62-11.77-2.96-3.16-.28-5.73,0-7.69,.8-1.97,.81-3.05,2.37-3.26,4.67-.15,1.7,.28,3.15,1.27,4.34,1,1.19,2.49,2.33,4.48,3.42,1.99,1.09,4.43,2.2,7.33,3.31,2.9,1.11,6.18,2.44,9.85,3.98,5.79,2.34,11,4.82,15.61,7.43,4.61,2.61,8.48,5.55,11.63,8.82,3.14,3.28,5.44,7.12,6.89,11.53,1.45,4.42,1.91,9.66,1.38,15.74-.68,7.78-2.68,14.19-6,19.22-3.32,5.04-7.46,8.93-12.41,11.68-4.96,2.75-10.44,4.57-16.46,5.45-6.02,.88-12,1.06-17.96,.54-4.74-.41-9.57-1.2-14.49-2.37-4.92-1.17-9.78-2.63-14.59-4.4-4.81-1.77-9.41-3.76-13.81-5.98-4.4-2.22-8.44-4.66-12.13-7.31l18.04-29.83c4.02,3.05,8.25,5.8,12.69,8.27,3.73,2.16,7.99,4.19,12.79,6.08s9.74,3.06,14.85,3.5c3.89,.34,6.64,.06,8.25-.84,1.61-.9,2.49-2.2,2.64-3.9,.16-1.82-.47-3.44-1.87-4.85-1.41-1.41-3.41-2.71-6-3.92-2.59-1.21-5.57-2.45-8.95-3.72-3.38-1.27-6.96-2.75-10.73-4.43-5.54-2.44-10.28-4.97-14.22-7.58-3.94-2.61-7.12-5.46-9.54-8.55-2.43-3.09-4.11-6.51-5.07-10.27s-1.23-8.01-.81-12.75c.63-7.17,2.48-13.38,5.58-18.62,3.09-5.24,7.04-9.49,11.86-12.74,4.81-3.25,10.19-5.57,16.13-6.95,5.94-1.38,12.12-1.79,18.57-1.22,4.74,.41,9.32,1.27,13.74,2.58,4.42,1.3,8.66,2.84,12.73,4.6,4.07,1.77,7.86,3.63,11.36,5.59,3.5,1.96,6.65,3.8,9.44,5.51l-17.88,28.01Z"/><path class="e" d="M774.92,168.72l-34.62-13.96-36.96,91.65-33.1-13.34,36.96-91.65-34.79-14.03,11.63-28.85,102.51,41.33-11.63,28.85Z"/><path class="e" d="M771.33,292.27c-7.51-6.42-13.1-13.68-16.77-21.79-3.67-8.1-5.68-16.36-6.04-24.77-.36-8.41,.83-16.66,3.57-24.75,2.74-8.09,6.84-15.33,12.31-21.74,5.54-6.49,12.15-11.68,19.8-15.58,7.65-3.89,15.69-6.21,24.12-6.96,8.42-.75,16.88,.14,25.39,2.68,8.5,2.53,16.42,6.93,23.75,13.19,7.51,6.42,13.1,13.68,16.77,21.79,3.67,8.11,5.66,16.38,5.98,24.84,.32,8.46-.92,16.71-3.7,24.76-2.79,8.05-6.87,15.23-12.26,21.54-5.55,6.49-12.13,11.66-19.74,15.51s-15.61,6.16-23.99,6.95-16.84-.06-25.38-2.55c-8.55-2.49-16.48-6.86-23.81-13.12Zm20.39-69.23c-2.85,3.34-5.14,6.96-6.87,10.86-1.73,3.9-2.7,7.85-2.9,11.84-.21,4,.47,7.95,2.04,11.85,1.56,3.9,4.29,7.52,8.19,10.84,3.9,3.33,7.94,5.45,12.12,6.38,4.18,.92,8.23,.93,12.14,.02,3.91-.91,7.65-2.57,11.23-4.97,3.57-2.4,6.75-5.22,9.52-8.47,2.85-3.34,5.14-6.96,6.87-10.86,1.73-3.9,2.65-7.85,2.77-11.83,.12-3.99-.62-7.91-2.22-11.77-1.6-3.86-4.3-7.41-8.11-10.66-3.9-3.33-7.89-5.46-11.99-6.39-4.1-.93-8.12-.96-12.08-.09-3.96,.87-7.7,2.49-11.24,4.84-3.54,2.36-6.69,5.16-9.46,8.4Z"/><path class="e" d="M872.49,294.93c6.95-3.82,14.51-6.27,22.69-7.34,8.17-1.08,16.31-.57,24.42,1.52,8.11,2.09,15.78,5.81,23.03,11.15,7.25,5.34,13.4,12.62,18.45,21.81,6.05,11.01,9.01,21.81,8.9,32.38-.11,10.57-2.83,19.89-8.14,27.95l-30.13-14.57c2.19-2.6,3.71-5.27,4.56-8.04,.85-2.76,1.22-5.51,1.12-8.23-.11-2.73-.58-5.36-1.41-7.89-.84-2.54-1.84-4.87-3.01-7.01-2.47-4.49-5.48-7.88-9.03-10.18-3.56-2.29-7.32-3.7-11.3-4.23-3.98-.53-8.04-.32-12.18,.63-4.14,.95-7.97,2.39-11.5,4.33-3.96,2.17-7.43,4.84-10.42,8.02-2.99,3.17-5.26,6.65-6.81,10.42-1.55,3.77-2.26,7.74-2.12,11.92,.13,4.17,1.31,8.29,3.55,12.35,1.17,2.14,2.62,4.2,4.33,6.18,1.71,1.98,3.71,3.71,5.97,5.18,2.27,1.47,4.74,2.55,7.41,3.24,2.67,.69,5.56,.81,8.65,.36l-1.24,33.87c-5.11,.58-10.28,.04-15.5-1.62-5.22-1.66-10.18-4.09-14.86-7.29-4.68-3.21-9.01-7.03-12.97-11.46-3.96-4.44-7.27-9.06-9.91-13.87-4.64-8.45-7.2-17.1-7.67-25.95-.48-8.85,.67-17.35,3.44-25.48,2.77-8.13,6.92-15.53,12.46-22.18,5.53-6.66,11.93-11.98,19.21-15.97Z"/><path class="e" d="M870.28,430.7l128.54-18.98,5.21,35.3-48.88,7.22,54.65,31.89,5.88,39.83-64.47-38.21-63.59,60.45-5.99-40.55,42.55-38.84-11.58-8.28-37.11,5.48-5.21-35.3Z"/></g></g></svg>