<svg xmlns="http://www.w3.org/2000/svg" id="Layer_1" data-name="Layer 1" viewBox="0 0 1141.23 669.84"><defs><style>.cls-1{stroke:#d02629}.cls-1,.cls-2{stroke-width:8px}.cls-1,.cls-2,.cls-3{fill:none;stroke-miterlimit:10}.cls-2,.cls-3{stroke:#000}.cls-4{stroke-width:0}.cls-3{stroke-width:16px}</style></defs><path d="M570.62 503.93v-94.52" class="cls-1"/><path d="M545.25 543.23v-26.01" class="cls-2"/><path d="M570.62 543.23v-26.01" class="cls-1"/><path d="M595.99 543.23v-26.01M557.91 322.57h-25.54M549.37 383.67h-25.54M553.64 353.12H528.1M545.25 503.93v-86.48s-3.7-5.47-11.45-10.88l12.81-122.8 24.01 9.66 24.01-9.66 12.81 122.8c-7.75 5.41-11.45 10.88-11.45 10.88v86.48M583.32 322.57h25.55M591.86 383.67h25.55M587.59 353.12h25.55" class="cls-2"/><path d="M523.83 383.67h-10.9M528.1 353.12h-10.9M532.37 322.57h-10.9M617.41 383.67h10.9M613.14 353.12h10.9M608.87 322.57h10.9" class="cls-3"/><path d="M570.62 396.68v-88.59" class="cls-1"/><g id="c"><path d="m145.22 399.43 128.21 21.05-5.78 35.21-50.2-8.24-7.06 42.98 50.2 8.24-5.78 35.21-128.21-21.05 5.78-35.21 47.31 7.77 7.06-42.98-47.31-7.77 5.78-35.21ZM306.14 367.03c-5.15 8.43-11.44 15.1-18.86 20s-15.26 8.19-23.51 9.88-16.58 1.81-25 .38c-8.42-1.42-16.22-4.33-23.41-8.72-7.29-4.45-13.46-10.15-18.51-17.09-5.05-6.94-8.61-14.51-10.68-22.71-2.07-8.2-2.53-16.69-1.37-25.5 1.16-8.8 4.25-17.31 9.27-25.54 5.15-8.43 11.44-15.1 18.86-20 7.43-4.9 15.28-8.17 23.58-9.83 8.3-1.65 16.64-1.74 25.03-.26s16.12 4.38 23.2 8.7c7.29 4.45 13.43 10.13 18.43 17.05 5 6.91 8.55 14.44 10.65 22.59 2.1 8.14 2.6 16.63 1.5 25.46-1.11 8.83-4.17 17.36-9.19 25.58Zm-71.58-9.19c3.75 2.29 7.68 3.98 11.81 5.07 4.12 1.09 8.17 1.42 12.15.99 3.98-.43 7.77-1.72 11.38-3.88 3.61-2.16 6.74-5.42 9.41-9.8 2.67-4.37 4.13-8.7 4.39-12.97.25-4.28-.38-8.27-1.9-11.99-1.52-3.71-3.75-7.15-6.68-10.3s-6.22-5.84-9.87-8.07c-3.75-2.29-7.68-3.98-11.81-5.07-4.12-1.09-8.17-1.38-12.12-.86-3.96.51-7.71 1.87-11.27 4.05-3.55 2.19-6.63 5.42-9.24 9.69-2.67 4.37-4.14 8.66-4.42 12.85-.27 4.2.33 8.18 1.82 11.94 1.49 3.77 3.67 7.21 6.56 10.33 2.88 3.12 6.15 5.79 9.79 8.02ZM386.12 279.35c-7.94 5.89-16.26 9.72-24.98 11.48s-17.22 1.88-25.49.35c-8.28-1.53-16.05-4.53-23.32-9.01-7.27-4.48-13.42-10.1-18.44-16.86-5.09-6.86-8.67-14.45-10.76-22.78-2.08-8.33-2.55-16.68-1.39-25.06 1.15-8.38 3.91-16.42 8.28-24.15 4.37-7.72 10.42-14.46 18.16-20.2 7.94-5.89 16.26-9.71 24.98-11.48 8.72-1.76 17.23-1.85 25.55-.27 8.31 1.58 16.08 4.63 23.31 9.14 7.23 4.52 13.31 10.1 18.25 16.76 5.09 6.86 8.66 14.43 10.7 22.71s2.52 16.59 1.41 24.93c-1.1 8.34-3.82 16.4-8.16 24.17-4.33 7.78-10.37 14.53-18.11 20.28h.01Zm-62.92-35.34c2.62 3.53 5.63 6.57 9.05 9.12 3.42 2.56 7.05 4.38 10.9 5.47s7.85 1.32 12 .66c4.15-.65 8.28-2.5 12.4-5.56 4.11-3.05 7.09-6.52 8.93-10.39s2.75-7.81 2.73-11.83c-.02-4.01-.8-8.03-2.34-12.05a46.311 46.311 0 0 0-6.13-11.17c-2.62-3.53-5.63-6.57-9.05-9.12-3.42-2.55-7.06-4.33-10.92-5.34-3.86-1.01-7.85-1.16-11.97-.46s-8.18 2.54-12.2 5.52c-4.11 3.05-7.08 6.48-8.91 10.26-1.83 3.79-2.75 7.71-2.79 11.75-.03 4.05.7 8.06 2.21 12.03 1.5 3.98 3.53 7.67 6.08 11.1h.01ZM437.28 242.01l-33.73-125.48 48.25-12.97c10.37-2.79 19.94-3.59 28.72-2.42 8.78 1.18 16.58 3.88 23.4 8.11s12.61 9.78 17.36 16.65c4.75 6.87 8.29 14.61 10.6 23.21 2.57 9.54 3.38 18.58 2.45 27.1-.93 8.53-3.43 16.27-7.49 23.24-4.07 6.97-9.58 13-16.55 18.09-6.97 5.1-15.22 8.93-24.77 11.49L437.27 242h.01Zm59.61-83.49c-1.3-4.83-3.13-9.07-5.51-12.73-2.37-3.65-5.15-6.57-8.32-8.75-3.18-2.18-6.74-3.59-10.71-4.23-3.96-.64-8.12-.37-12.48.8l-13.78 3.71 17.58 65.39 13.78-3.71c4.48-1.2 8.26-3.1 11.35-5.71 3.09-2.6 5.45-5.7 7.07-9.29s2.52-7.56 2.68-11.9-.39-8.86-1.66-13.58ZM638.91 134.24a99.413 99.413 0 0 0-10.79-6.82c-3.15-1.75-6.71-3.43-10.67-5.07-3.96-1.63-7.89-2.62-11.77-2.96-3.16-.28-5.73 0-7.69.8-1.97.81-3.05 2.37-3.26 4.67-.15 1.7.28 3.15 1.27 4.34 1 1.19 2.49 2.33 4.48 3.42s4.43 2.2 7.33 3.31 6.18 2.44 9.85 3.98c5.79 2.34 11 4.82 15.61 7.43 4.61 2.61 8.48 5.55 11.63 8.82 3.14 3.28 5.44 7.12 6.89 11.53 1.45 4.42 1.91 9.66 1.38 15.74-.68 7.78-2.68 14.19-6 19.22-3.32 5.04-7.46 8.93-12.41 11.68-4.96 2.75-10.44 4.57-16.46 5.45-6.02.88-12 1.06-17.96.54-4.74-.41-9.57-1.2-14.49-2.37s-9.78-2.63-14.59-4.4c-4.81-1.77-9.41-3.76-13.81-5.98s-8.44-4.66-12.13-7.31l18.04-29.83c4.02 3.05 8.25 5.8 12.69 8.27 3.73 2.16 7.99 4.19 12.79 6.08s9.74 3.06 14.85 3.5c3.89.34 6.64.06 8.25-.84s2.49-2.2 2.64-3.9c.16-1.82-.47-3.44-1.87-4.85-1.41-1.41-3.41-2.71-6-3.92s-5.57-2.45-8.95-3.72-6.96-2.75-10.73-4.43c-5.54-2.44-10.28-4.97-14.22-7.58-3.94-2.61-7.12-5.46-9.54-8.55-2.43-3.09-4.11-6.51-5.07-10.27s-1.23-8.01-.81-12.75c.63-7.17 2.48-13.38 5.58-18.62 3.09-5.24 7.04-9.49 11.86-12.74 4.81-3.25 10.19-5.57 16.13-6.95s12.12-1.79 18.57-1.22c4.74.41 9.32 1.27 13.74 2.58 4.42 1.3 8.66 2.84 12.73 4.6 4.07 1.77 7.86 3.63 11.36 5.59 3.5 1.96 6.65 3.8 9.44 5.51l-17.88 28.01ZM774.92 168.72l-34.62-13.96-36.96 91.65-33.1-13.34 36.96-91.65-34.79-14.03 11.63-28.85 102.51 41.33-11.63 28.85ZM771.33 292.27c-7.51-6.42-13.1-13.68-16.77-21.79-3.67-8.1-5.68-16.36-6.04-24.77s.83-16.66 3.57-24.75 6.84-15.33 12.31-21.74c5.54-6.49 12.15-11.68 19.8-15.58 7.65-3.89 15.69-6.21 24.12-6.96 8.42-.75 16.88.14 25.39 2.68 8.5 2.53 16.42 6.93 23.75 13.19 7.51 6.42 13.1 13.68 16.77 21.79s5.66 16.38 5.98 24.84c.32 8.46-.92 16.71-3.7 24.76-2.79 8.05-6.87 15.23-12.26 21.54-5.55 6.49-12.13 11.66-19.74 15.51s-15.61 6.16-23.99 6.95-16.84-.06-25.38-2.55c-8.55-2.49-16.48-6.86-23.81-13.12Zm20.39-69.23c-2.85 3.34-5.14 6.96-6.87 10.86s-2.7 7.85-2.9 11.84c-.21 4 .47 7.95 2.04 11.85 1.56 3.9 4.29 7.52 8.19 10.84 3.9 3.33 7.94 5.45 12.12 6.38 4.18.92 8.23.93 12.14.02s7.65-2.57 11.23-4.97c3.57-2.4 6.75-5.22 9.52-8.47 2.85-3.34 5.14-6.96 6.87-10.86s2.65-7.85 2.77-11.83c.12-3.99-.62-7.91-2.22-11.77s-4.3-7.41-8.11-10.66c-3.9-3.33-7.89-5.46-11.99-6.39s-8.12-.96-12.08-.09c-3.96.87-7.7 2.49-11.24 4.84a45.846 45.846 0 0 0-9.46 8.4h-.01ZM872.49 294.93c6.95-3.82 14.51-6.27 22.69-7.34 8.17-1.08 16.31-.57 24.42 1.52s15.78 5.81 23.03 11.15 13.4 12.62 18.45 21.81c6.05 11.01 9.01 21.81 8.9 32.38s-2.83 19.89-8.14 27.95l-30.13-14.57c2.19-2.6 3.71-5.27 4.56-8.04.85-2.76 1.22-5.51 1.12-8.23-.11-2.73-.58-5.36-1.41-7.89-.84-2.54-1.84-4.87-3.01-7.01-2.47-4.49-5.48-7.88-9.03-10.18-3.56-2.29-7.32-3.7-11.3-4.23s-8.04-.32-12.18.63-7.97 2.39-11.5 4.33c-3.96 2.17-7.43 4.84-10.42 8.02-2.99 3.17-5.26 6.65-6.81 10.42-1.55 3.77-2.26 7.74-2.12 11.92.13 4.17 1.31 8.29 3.55 12.35 1.17 2.14 2.62 4.2 4.33 6.18 1.71 1.98 3.71 3.71 5.97 5.18 2.27 1.47 4.74 2.55 7.41 3.24s5.56.81 8.65.36l-1.24 33.87c-5.11.58-10.28.04-15.5-1.62s-10.18-4.09-14.86-7.29c-4.68-3.21-9.01-7.03-12.97-11.46-3.96-4.44-7.27-9.06-9.91-13.87-4.64-8.45-7.2-17.1-7.67-25.95-.48-8.85.67-17.35 3.44-25.48s6.92-15.53 12.46-22.18c5.53-6.66 11.93-11.98 19.21-15.97ZM870.28 430.7l128.54-18.98 5.21 35.3-48.88 7.22 54.65 31.89 5.88 39.83-64.47-38.21-63.59 60.45-5.99-40.55 42.55-38.84-11.58-8.28-37.11 5.48-5.21-35.3Z" class="cls-4"/></g></svg>